<?xml version="1.0" encoding="utf-8"?>
<svg viewBox="236.906 237.5 41.899 40" width="41.899" height="40" xmlns="http://www.w3.org/2000/svg">
  <path d="M 276.039 277.455 L 270.096 271.514 C 269.463 271.958 268.757 272.29 267.981 272.511 C 267.205 272.734 266.405 272.844 265.581 272.844 C 263.204 272.844 261.183 272.012 259.519 270.35 C 257.855 268.686 257.024 266.665 257.024 264.287 C 257.024 261.911 257.855 259.89 259.519 258.226 C 261.183 256.562 263.204 255.73 265.581 255.73 C 267.957 255.73 269.978 256.562 271.642 258.226 C 273.306 259.89 274.138 261.911 274.138 264.287 C 274.138 265.111 274.026 265.913 273.805 266.689 C 273.583 267.465 273.25 268.186 272.807 268.852 L 278.749 274.746 L 276.039 277.455 Z M 265.581 269.042 C 266.912 269.042 268.037 268.582 268.956 267.663 C 269.876 266.743 270.335 265.618 270.335 264.287 C 270.335 262.956 269.876 261.831 268.956 260.913 C 268.037 259.993 266.912 259.534 265.581 259.534 C 264.25 259.534 263.124 259.993 262.205 260.913 C 261.287 261.831 260.826 262.956 260.826 264.287 C 260.826 265.618 261.287 266.743 262.205 267.663 C 263.124 268.582 264.25 269.042 265.581 269.042 Z" style=""/>
  <path d="M 240.028 268.292 L 236.938 266.057 L 246.445 250.846 L 252.151 257.5 L 259.757 245.14 L 264.938 252.889 C 264.208 252.921 263.52 253.007 262.871 253.151 C 262.221 253.294 261.578 253.49 260.944 253.745 L 259.9 252.175 L 252.672 263.918 L 246.92 257.215 L 240.028 268.292 Z M 269.834 253.839 C 269.232 253.586 268.607 253.38 267.957 253.222 C 267.308 253.063 266.634 252.969 265.936 252.937 L 275.682 237.534 L 278.772 239.769 L 269.834 253.839 Z" style="fill: rgb(169, 139, 250);"/>
  <path d="M 236.906 266.063 L 246.442 250.806 L 252.148 257.46 L 259.756 245.097 L 264.981 252.911 L 264.94 252.913 C 264.212 252.945 263.524 253.031 262.876 253.174 C 262.226 253.316 261.586 253.513 260.954 253.767 L 260.936 253.774 L 259.9 252.22 L 252.676 263.958 L 246.924 257.255 L 240.034 268.326 L 236.906 266.063 Z M 246.917 257.175 L 252.669 263.878 L 259.898 252.132 L 260.954 253.716 C 261.583 253.465 262.215 253.27 262.864 253.127 C 263.516 252.985 264.181 252.9 264.895 252.866 L 259.757 245.185 L 252.154 257.54 L 246.448 250.886 L 236.97 266.05 L 240.021 268.257 L 246.917 257.175 Z M 270.117 271.554 C 269.485 271.994 268.789 272.322 268.012 272.545 C 267.232 272.767 266.429 272.879 265.604 272.879 C 263.223 272.879 261.192 272.044 259.525 270.377 C 257.858 268.71 257.023 266.679 257.023 264.298 C 257.023 261.918 257.858 259.887 259.525 258.22 C 261.192 256.553 263.223 255.718 265.604 255.718 C 267.984 255.718 270.015 256.553 271.682 258.22 C 273.349 259.887 274.184 261.918 274.184 264.298 C 274.184 265.124 274.072 265.927 273.85 266.705 C 273.628 267.484 273.3 268.196 272.86 268.858 L 278.805 274.756 L 276.063 277.5 L 270.117 271.554 Z M 278.738 274.756 L 272.799 268.865 L 272.81 268.849 C 273.253 268.185 273.583 267.466 273.805 266.692 C 274.026 265.918 274.136 265.121 274.136 264.298 C 274.136 261.926 273.309 259.914 271.648 258.254 C 269.988 256.593 267.976 255.766 265.604 255.766 C 263.231 255.766 261.22 256.593 259.559 258.254 C 257.898 259.914 257.071 261.926 257.071 264.298 C 257.071 266.671 257.898 268.682 259.559 270.343 C 261.22 272.002 263.231 272.831 265.604 272.831 C 266.426 272.831 267.223 272.721 267.997 272.5 C 268.773 272.278 269.474 271.948 270.106 271.505 L 270.122 271.494 L 276.063 277.433 L 278.738 274.756 Z M 262.212 267.69 C 261.29 266.767 260.826 265.634 260.826 264.298 C 260.826 262.962 261.29 261.828 262.212 260.906 C 263.133 259.983 264.268 259.521 265.604 259.521 C 266.94 259.521 268.074 259.983 268.996 260.906 C 269.919 261.828 270.381 262.962 270.381 264.298 C 270.381 265.634 269.919 266.767 268.996 267.69 C 268.074 268.612 266.94 269.076 265.604 269.076 C 264.268 269.076 263.133 268.612 262.212 267.69 Z M 265.604 269.028 C 266.93 269.028 268.047 268.572 268.962 267.657 C 269.877 266.742 270.333 265.625 270.333 264.298 C 270.333 262.972 269.877 261.855 268.962 260.94 C 268.047 260.023 266.93 259.569 265.604 259.569 C 264.277 259.569 263.16 260.023 262.245 260.94 C 261.33 261.855 260.874 262.972 260.874 264.298 C 260.874 265.625 261.33 266.742 262.245 267.657 C 263.16 268.572 264.277 269.028 265.604 269.028 Z M 269.826 253.862 C 269.224 253.609 268.6 253.402 267.951 253.246 C 267.303 253.087 266.631 252.991 265.935 252.961 L 265.895 252.959 L 275.676 237.5 L 278.804 239.762 L 269.844 253.87 L 269.826 253.862 Z M 278.74 239.775 L 275.688 237.569 L 265.978 252.914 C 266.663 252.948 267.312 253.039 267.962 253.199 C 268.613 253.358 269.228 253.559 269.826 253.81 L 278.74 239.775 Z" style="fill: none;"/>
  <path d="M 236.906 266.063 L 246.442 250.806 L 252.148 257.46 L 259.756 245.097 L 264.981 252.911 L 264.94 252.913 C 264.212 252.945 263.524 253.031 262.876 253.174 C 262.226 253.316 261.586 253.513 260.954 253.767 L 260.936 253.774 L 259.9 252.22 L 252.676 263.958 L 246.924 257.255 L 240.034 268.326 L 236.906 266.063 Z M 246.917 257.175 L 252.669 263.878 L 259.898 252.132 L 260.954 253.716 C 261.583 253.465 262.215 253.27 262.864 253.127 C 263.516 252.985 264.181 252.9 264.895 252.866 L 259.757 245.185 L 252.154 257.54 L 246.448 250.886 L 236.97 266.05 L 240.021 268.257 L 246.917 257.175 Z M 270.117 271.554 C 269.485 271.994 268.789 272.322 268.012 272.545 C 267.232 272.767 266.429 272.879 265.604 272.879 C 263.223 272.879 261.192 272.044 259.525 270.377 C 257.858 268.71 257.023 266.679 257.023 264.298 C 257.023 261.918 257.858 259.887 259.525 258.22 C 261.192 256.553 263.223 255.718 265.604 255.718 C 267.984 255.718 270.015 256.553 271.682 258.22 C 273.349 259.887 274.184 261.918 274.184 264.298 C 274.184 265.124 274.072 265.927 273.85 266.705 C 273.628 267.484 273.3 268.196 272.86 268.858 L 278.805 274.756 L 276.063 277.5 L 270.117 271.554 Z M 278.738 274.756 L 272.799 268.865 L 272.81 268.849 C 273.253 268.185 273.583 267.466 273.805 266.692 C 274.026 265.918 274.136 265.121 274.136 264.298 C 274.136 261.926 273.309 259.914 271.648 258.254 C 269.988 256.593 267.976 255.766 265.604 255.766 C 263.231 255.766 261.22 256.593 259.559 258.254 C 257.898 259.914 257.071 261.926 257.071 264.298 C 257.071 266.671 257.898 268.682 259.559 270.343 C 261.22 272.002 263.231 272.831 265.604 272.831 C 266.426 272.831 267.223 272.721 267.997 272.5 C 268.773 272.278 269.474 271.948 270.106 271.505 L 270.122 271.494 L 276.063 277.433 L 278.738 274.756 Z M 262.212 267.69 C 261.29 266.767 260.826 265.634 260.826 264.298 C 260.826 262.962 261.29 261.828 262.212 260.906 C 263.133 259.983 264.268 259.521 265.604 259.521 C 266.94 259.521 268.074 259.983 268.996 260.906 C 269.919 261.828 270.381 262.962 270.381 264.298 C 270.381 265.634 269.919 266.767 268.996 267.69 C 268.074 268.612 266.94 269.076 265.604 269.076 C 264.268 269.076 263.133 268.612 262.212 267.69 Z M 265.604 269.028 C 266.93 269.028 268.047 268.572 268.962 267.657 C 269.877 266.742 270.333 265.625 270.333 264.298 C 270.333 262.972 269.877 261.855 268.962 260.94 C 268.047 260.023 266.93 259.569 265.604 259.569 C 264.277 259.569 263.16 260.023 262.245 260.94 C 261.33 261.855 260.874 262.972 260.874 264.298 C 260.874 265.625 261.33 266.742 262.245 267.657 C 263.16 268.572 264.277 269.028 265.604 269.028 Z M 269.826 253.862 C 269.224 253.609 268.6 253.402 267.951 253.246 C 267.303 253.087 266.631 252.991 265.935 252.961 L 265.895 252.959 L 275.676 237.5 L 278.804 239.762 L 269.844 253.87 L 269.826 253.862 Z M 278.74 239.775 L 275.688 237.569 L 265.978 252.914 C 266.663 252.948 267.312 253.039 267.962 253.199 C 268.613 253.358 269.228 253.559 269.826 253.81 L 278.74 239.775 Z" style="fill: none;"/>
</svg>