<?xml version="1.0" encoding="utf-8"?>
<svg viewBox="139.089 117.801 142.346 25" width="142.346" height="25" xmlns="http://www.w3.org/2000/svg">
  <path fill="#A88BFA" d="M 146.008 132.397 C 146.648 132.206 147.68 131.913 148.867 131.84 C 148.155 130.044 147.983 128.471 148.121 127.071 C 148.281 125.455 148.851 124.105 149.407 122.957 C 149.526 122.712 149.64 122.484 149.749 122.265 C 149.904 121.955 150.049 121.664 150.185 121.37 C 150.412 120.88 150.58 120.447 150.665 120.046 C 150.749 119.65 150.749 119.297 150.65 118.959 C 150.551 118.62 150.341 118.255 149.941 117.855 C 149.419 117.72 148.839 117.839 148.405 118.229 L 143.249 122.868 C 142.961 123.126 142.773 123.477 142.715 123.859 L 142.27 126.807 C 142.969 127.425 144.695 129.221 145.744 131.713 C 145.838 131.936 145.926 132.164 146.008 132.397 L 146.008 132.397 Z"/>
  <path fill="#A88BFA" d="M 142.062 128.153 C 142.038 128.256 142.003 128.358 141.96 128.455 L 139.235 134.529 C 138.955 135.152 139.084 135.884 139.56 136.374 L 143.848 140.791 C 146.038 137.56 145.719 134.521 144.719 132.145 C 143.96 130.344 142.811 128.934 142.062 128.153 L 142.062 128.153 Z"/>
  <path fill="#A88BFA" d="M 144.839 141.311 C 144.914 141.323 144.99 141.33 145.067 141.332 C 145.881 141.357 147.25 141.428 148.36 141.632 C 149.265 141.799 151.06 142.301 152.537 142.733 C 153.664 143.062 154.826 142.162 154.99 140.999 C 155.109 140.151 155.333 139.191 155.745 138.312 L 155.735 138.315 C 155.037 136.368 154.149 135.111 153.218 134.308 C 152.289 133.508 151.29 133.134 150.324 132.999 C 148.72 132.773 147.249 133.195 146.323 133.467 C 146.878 135.777 146.707 138.496 144.839 141.311 L 144.839 141.311 Z"/>
  <path fill="#A88BFA" d="M 156.459 137.112 C 157.386 135.713 158.046 134.625 158.394 134.036 C 158.569 133.741 158.537 133.371 158.331 133.098 C 157.793 132.385 156.764 130.937 156.203 129.596 C 155.627 128.218 155.541 126.077 155.536 125.035 C 155.534 124.639 155.409 124.252 155.164 123.94 L 151.832 119.708 C 151.821 119.899 151.793 120.088 151.754 120.276 C 151.643 120.8 151.434 121.321 151.195 121.837 C 151.055 122.139 150.894 122.463 150.731 122.79 C 150.622 123.007 150.513 123.226 150.408 123.442 C 149.87 124.554 149.369 125.762 149.229 127.181 C 149.099 128.496 149.276 130.026 150.077 131.852 C 150.21 131.863 150.345 131.878 150.479 131.897 C 151.628 132.058 152.834 132.508 153.944 133.465 C 154.898 134.288 155.76 135.467 156.459 137.112 L 156.459 137.112 Z"/>
  <path fill="currentColor" d="M 178.84 122.305 C 172.888 122.305 168.592 126.049 168.592 131.185 C 168.592 136.321 172.888 140.065 178.84 140.065 C 184.768 140.065 189.064 136.321 189.064 131.185 C 189.064 126.049 184.768 122.305 178.84 122.305 L 178.84 122.305 Z M 178.84 125.785 C 182.416 125.785 184.984 127.921 184.984 131.185 C 184.984 134.449 182.416 136.585 178.84 136.585 C 175.24 136.585 172.672 134.449 172.672 131.185 C 172.672 127.921 175.24 125.785 178.84 125.785 L 178.84 125.785 Z"/>
  <path fill="currentColor" d="M 194.573 138.361 C 195.437 139.297 197.045 140.065 199.157 140.065 C 203.477 140.065 205.997 137.089 205.997 133.489 C 205.997 129.865 203.477 126.889 199.157 126.889 C 197.045 126.889 195.437 127.681 194.573 128.593 L 194.573 122.569 L 190.733 122.569 L 190.733 139.801 L 194.573 139.801 L 194.573 138.361 Z M 194.453 133.417 C 194.453 131.425 196.157 129.985 198.365 129.985 C 200.477 129.985 202.253 131.233 202.253 133.489 C 202.253 135.745 200.477 136.969 198.365 136.969 C 196.157 136.969 194.453 135.553 194.453 133.561 L 194.453 133.417 Z"/>
  <path fill="currentColor" d="M 206.407 137.713 C 207.871 139.201 210.679 140.065 213.607 140.065 C 217.567 140.065 220.543 138.625 220.543 135.673 C 220.543 132.793 217.711 132.241 214.471 131.857 C 211.735 131.545 210.895 131.473 210.895 130.777 C 210.895 130.129 211.759 129.721 213.391 129.721 C 215.359 129.721 217.063 130.321 218.215 131.377 L 220.207 129.073 C 218.935 127.849 216.559 126.889 213.583 126.889 C 209.575 126.889 207.103 128.617 207.103 131.209 C 207.103 133.921 209.623 134.521 212.647 134.905 C 215.479 135.241 216.679 135.241 216.679 136.081 C 216.679 136.873 215.623 137.209 213.895 137.209 C 211.735 137.209 209.743 136.537 208.231 135.145 L 206.407 137.713 Z"/>
  <path fill="currentColor" d="M 221.928 125.857 L 225.84 125.857 L 225.84 122.569 L 221.928 122.569 L 221.928 125.857 Z M 225.792 127.153 L 221.952 127.153 L 221.952 139.801 L 225.792 139.801 L 225.792 127.153 Z"/>
  <path fill="currentColor" d="M 238.915 138.361 L 238.915 139.801 L 242.754 139.801 L 242.754 122.569 L 238.915 122.569 L 238.915 128.593 C 238.051 127.681 236.443 126.889 234.331 126.889 C 230.011 126.889 227.491 129.865 227.491 133.489 C 227.491 137.089 230.011 140.065 234.331 140.065 C 236.443 140.065 238.051 139.297 238.915 138.361 L 238.915 138.361 Z M 239.035 133.417 L 239.035 133.561 C 239.035 135.553 237.331 136.969 235.123 136.969 C 233.011 136.969 231.235 135.745 231.235 133.489 C 231.235 131.233 233.011 129.985 235.123 129.985 C 237.331 129.985 239.035 131.425 239.035 133.417 Z"/>
  <path fill="currentColor" d="M 245.084 125.857 L 248.996 125.857 L 248.996 122.569 L 245.084 122.569 L 245.084 125.857 Z M 248.948 127.153 L 245.108 127.153 L 245.108 139.801 L 248.948 139.801 L 248.948 127.153 Z"/>
  <path fill="currentColor" d="M 255.951 140.065 C 258.183 140.065 260.007 139.417 261.159 138.409 C 261.807 139.609 263.343 140.329 266.151 139.801 L 266.151 136.969 C 264.807 137.257 264.519 136.945 264.519 136.273 L 264.519 131.665 C 264.519 128.497 262.143 126.889 258.111 126.889 C 254.631 126.889 251.847 128.401 251.055 130.681 L 254.511 131.617 C 254.895 130.633 256.215 129.913 257.943 129.913 C 259.983 129.913 260.799 130.681 260.799 131.641 L 260.799 131.713 L 255.759 132.169 C 252.783 132.457 250.599 133.681 250.599 136.153 C 250.599 138.649 252.831 140.065 255.951 140.065 L 255.951 140.065 Z M 260.799 134.953 C 260.799 136.417 258.615 137.257 256.647 137.257 C 255.159 137.257 254.319 136.825 254.319 136.009 C 254.319 135.169 254.991 134.857 256.311 134.737 L 260.799 134.281 L 260.799 134.953 Z"/>
  <path fill="currentColor" d="M 267.467 139.801 L 271.307 139.801 L 271.307 133.753 C 271.307 131.569 272.507 130.297 274.595 130.297 C 276.563 130.297 277.595 131.593 277.595 133.729 L 277.595 139.801 L 281.435 139.801 L 281.435 132.601 C 281.435 129.097 279.203 126.889 275.915 126.889 C 273.875 126.889 272.291 127.657 271.307 128.689 L 271.307 127.153 L 267.467 127.153 L 267.467 139.801 Z"/>
</svg>